<?xml version="1.0" encoding="UTF-8" standalone="no"?>
<!DOCTYPE svg PUBLIC "-//W3C//DTD SVG 1.1//EN"
 "http://www.w3.org/Graphics/SVG/1.1/DTD/svg11.dtd">
<!-- Generated by graphviz version 2.36.0 (20140111.2315)
 -->
<!-- Title: controllers_diagram Pages: 1 -->
<svg width="584pt" height="574pt"
 viewBox="0.00 0.00 584.00 574.00" xmlns="http://www.w3.org/2000/svg" xmlns:xlink="http://www.w3.org/1999/xlink">
<g id="graph0" class="graph" transform="scale(1 1) rotate(0) translate(4 570)">
<title>controllers_diagram</title>
<polygon fill="white" stroke="none" points="-4,4 -4,-570 580,-570 580,4 -4,4"/>
<!-- _diagram_info -->
<g id="node1" class="node"><title>_diagram_info</title>
<text text-anchor="start" x="93" y="-454.6" font-family="Times,serif" font-size="13.00">Controllers diagram</text>
<text text-anchor="start" x="93" y="-440.6" font-family="Times,serif" font-size="13.00">Date: Jul 30 2015 &#45; 13:11</text>
<text text-anchor="start" x="93" y="-426.6" font-family="Times,serif" font-size="13.00">Migration version: 20150728204649</text>
<text text-anchor="start" x="93" y="-412.6" font-family="Times,serif" font-size="13.00">Generated by RailRoady 1.3.0</text>
<text text-anchor="start" x="93" y="-398.6" font-family="Times,serif" font-size="13.00">http://railroady.prestonlee.com</text>
</g>
<!-- ApplicationController -->
<g id="node2" class="node"><title>ApplicationController</title>
<path fill="none" stroke="black" d="M352,-136.5C352,-136.5 522,-136.5 522,-136.5 528,-136.5 534,-142.5 534,-148.5 534,-148.5 534,-232.5 534,-232.5 534,-238.5 528,-244.5 522,-244.5 522,-244.5 352,-244.5 352,-244.5 346,-244.5 340,-238.5 340,-232.5 340,-232.5 340,-148.5 340,-148.5 340,-142.5 346,-136.5 352,-136.5"/>
<text text-anchor="middle" x="437" y="-229.3" font-family="Times,serif" font-size="14.00">ApplicationController</text>
<polyline fill="none" stroke="black" points="340,-221.5 534,-221.5 "/>
<polyline fill="none" stroke="black" points="340,-197.5 534,-197.5 "/>
<text text-anchor="start" x="348" y="-182.3" font-family="Times,serif" font-size="14.00">configure_permitted_parameters</text>
<text text-anchor="start" x="348" y="-167.3" font-family="Times,serif" font-size="14.00">save_roles</text>
<polyline fill="none" stroke="black" points="340,-159.5 534,-159.5 "/>
<text text-anchor="start" x="348" y="-144.3" font-family="Times,serif" font-size="14.00">_layout</text>
</g>
<!-- ApiSdPackagesController -->
<g id="node3" class="node"><title>ApiSdPackagesController</title>
<path fill="none" stroke="black" d="M352,-272.5C352,-272.5 485,-272.5 485,-272.5 491,-272.5 497,-278.5 497,-284.5 497,-284.5 497,-398.5 497,-398.5 497,-404.5 491,-410.5 485,-410.5 485,-410.5 352,-410.5 352,-410.5 346,-410.5 340,-404.5 340,-398.5 340,-398.5 340,-284.5 340,-284.5 340,-278.5 346,-272.5 352,-272.5"/>
<text text-anchor="middle" x="418.5" y="-395.3" font-family="Times,serif" font-size="14.00">ApiSdPackagesController</text>
<polyline fill="none" stroke="black" points="340,-387.5 497,-387.5 "/>
<text text-anchor="start" x="348" y="-372.3" font-family="Times,serif" font-size="14.00">tablet</text>
<polyline fill="none" stroke="black" points="340,-364.5 497,-364.5 "/>
<polyline fill="none" stroke="black" points="340,-340.5 497,-340.5 "/>
<text text-anchor="start" x="348" y="-325.3" font-family="Times,serif" font-size="14.00">_layout</text>
<text text-anchor="start" x="348" y="-310.3" font-family="Times,serif" font-size="14.00">find_sd_package</text>
<text text-anchor="start" x="348" y="-295.3" font-family="Times,serif" font-size="14.00">key_presence</text>
<text text-anchor="start" x="348" y="-280.3" font-family="Times,serif" font-size="14.00">tablet_presence</text>
</g>
<!-- ApiPackagesController -->
<g id="node4" class="node"><title>ApiPackagesController</title>
<path fill="none" stroke="black" d="M131,-170.5C131,-170.5 290,-170.5 290,-170.5 296,-170.5 302,-176.5 302,-182.5 302,-182.5 302,-326.5 302,-326.5 302,-332.5 296,-338.5 290,-338.5 290,-338.5 131,-338.5 131,-338.5 125,-338.5 119,-332.5 119,-326.5 119,-326.5 119,-182.5 119,-182.5 119,-176.5 125,-170.5 131,-170.5"/>
<text text-anchor="middle" x="210.5" y="-323.3" font-family="Times,serif" font-size="14.00">ApiPackagesController</text>
<polyline fill="none" stroke="black" points="119,-315.5 302,-315.5 "/>
<text text-anchor="start" x="127" y="-300.3" font-family="Times,serif" font-size="14.00">buy</text>
<text text-anchor="start" x="127" y="-285.3" font-family="Times,serif" font-size="14.00">index</text>
<text text-anchor="start" x="127" y="-270.3" font-family="Times,serif" font-size="14.00">show</text>
<polyline fill="none" stroke="black" points="119,-262.5 302,-262.5 "/>
<polyline fill="none" stroke="black" points="119,-238.5 302,-238.5 "/>
<text text-anchor="start" x="127" y="-223.3" font-family="Times,serif" font-size="14.00">_layout</text>
<text text-anchor="start" x="127" y="-208.3" font-family="Times,serif" font-size="14.00">check_if_key_is_already_used</text>
<text text-anchor="start" x="127" y="-193.3" font-family="Times,serif" font-size="14.00">find_package</text>
<text text-anchor="start" x="127" y="-178.3" font-family="Times,serif" font-size="14.00">key_presence</text>
</g>
<!-- ApiGamesController -->
<g id="node5" class="node"><title>ApiGamesController</title>
<path fill="none" stroke="black" d="M420,-442.5C420,-442.5 564,-442.5 564,-442.5 570,-442.5 576,-448.5 576,-454.5 576,-454.5 576,-553.5 576,-553.5 576,-559.5 570,-565.5 564,-565.5 564,-565.5 420,-565.5 420,-565.5 414,-565.5 408,-559.5 408,-553.5 408,-553.5 408,-454.5 408,-454.5 408,-448.5 414,-442.5 420,-442.5"/>
<text text-anchor="middle" x="492" y="-550.3" font-family="Times,serif" font-size="14.00">ApiGamesController</text>
<polyline fill="none" stroke="black" points="408,-542.5 576,-542.5 "/>
<text text-anchor="start" x="416" y="-527.3" font-family="Times,serif" font-size="14.00">index</text>
<text text-anchor="start" x="416" y="-512.3" font-family="Times,serif" font-size="14.00">show</text>
<polyline fill="none" stroke="black" points="408,-504.5 576,-504.5 "/>
<polyline fill="none" stroke="black" points="408,-480.5 576,-480.5 "/>
<text text-anchor="start" x="416" y="-465.3" font-family="Times,serif" font-size="14.00">_layout</text>
<text text-anchor="start" x="416" y="-450.3" font-family="Times,serif" font-size="14.00">sd_package_has_that_game</text>
</g>
<!-- ApiProvidersController -->
<g id="node6" class="node"><title>ApiProvidersController</title>
<path fill="none" stroke="black" d="M233,-0.5C233,-0.5 353,-0.5 353,-0.5 359,-0.5 365,-6.5 365,-12.5 365,-12.5 365,-81.5 365,-81.5 365,-87.5 359,-93.5 353,-93.5 353,-93.5 233,-93.5 233,-93.5 227,-93.5 221,-87.5 221,-81.5 221,-81.5 221,-12.5 221,-12.5 221,-6.5 227,-0.5 233,-0.5"/>
<text text-anchor="middle" x="293" y="-78.3" font-family="Times,serif" font-size="14.00">ApiProvidersController</text>
<polyline fill="none" stroke="black" points="221,-70.5 365,-70.5 "/>
<text text-anchor="start" x="229" y="-55.3" font-family="Times,serif" font-size="14.00">me</text>
<polyline fill="none" stroke="black" points="221,-47.5 365,-47.5 "/>
<polyline fill="none" stroke="black" points="221,-23.5 365,-23.5 "/>
<text text-anchor="start" x="229" y="-8.3" font-family="Times,serif" font-size="14.00">_layout</text>
</g>
<!-- BaseApiController -->
<g id="node7" class="node"><title>BaseApiController</title>
<path fill="none" stroke="black" d="M12,-34.5C12,-34.5 174,-34.5 174,-34.5 180,-34.5 186,-40.5 186,-46.5 186,-46.5 186,-131.5 186,-131.5 186,-137.5 180,-143.5 174,-143.5 174,-143.5 12,-143.5 12,-143.5 6,-143.5 -2.84217e-14,-137.5 -2.84217e-14,-131.5 -2.84217e-14,-131.5 -2.84217e-14,-46.5 -2.84217e-14,-46.5 -2.84217e-14,-40.5 6,-34.5 12,-34.5"/>
<text text-anchor="middle" x="93" y="-128.3" font-family="Times,serif" font-size="14.00">BaseApiController</text>
<polyline fill="none" stroke="black" points="-2.84217e-14,-120.5 186,-120.5 "/>
<polyline fill="none" stroke="black" points="-2.84217e-14,-96.5 186,-96.5 "/>
<polyline fill="none" stroke="black" points="-2.84217e-14,-72.5 186,-72.5 "/>
<text text-anchor="start" x="8" y="-57.3" font-family="Times,serif" font-size="14.00">_layout</text>
<text text-anchor="start" x="8" y="-42.3" font-family="Times,serif" font-size="14.00">authenticate_user_from_token!</text>
</g>
</g>
</svg>
