<?xml version="1.0" encoding="UTF-8" standalone="no"?>
<!DOCTYPE svg PUBLIC "-//W3C//DTD SVG 1.1//EN"
 "http://www.w3.org/Graphics/SVG/1.1/DTD/svg11.dtd">
<!-- Generated by graphviz version 2.36.0 (20140111.2315)
 -->
<!-- Title: models_diagram Pages: 1 -->
<svg width="466pt" height="230pt"
 viewBox="0.00 0.00 466.00 230.00" xmlns="http://www.w3.org/2000/svg" xmlns:xlink="http://www.w3.org/1999/xlink">
<g id="graph0" class="graph" transform="scale(1 1) rotate(0) translate(4 226)">
<title>models_diagram</title>
<polygon fill="white" stroke="none" points="-4,4 -4,-226 462,-226 462,4 -4,4"/>
<!-- _diagram_info -->
<g id="node1" class="node"><title>_diagram_info</title>
<text text-anchor="start" x="7" y="-207.6" font-family="Times,serif" font-size="13.00">Models diagram</text>
<text text-anchor="start" x="7" y="-193.6" font-family="Times,serif" font-size="13.00">Date: Jul 30 2015 &#45; 13:11</text>
<text text-anchor="start" x="7" y="-179.6" font-family="Times,serif" font-size="13.00">Migration version: 20150728204649</text>
<text text-anchor="start" x="7" y="-165.6" font-family="Times,serif" font-size="13.00">Generated by RailRoady 1.3.0</text>
<text text-anchor="start" x="7" y="-151.6" font-family="Times,serif" font-size="13.00">http://railroady.prestonlee.com</text>
</g>
<!-- Package -->
<g id="node2" class="node"><title>Package</title>
<ellipse fill="none" stroke="black" cx="125" cy="-90" rx="39.9464" ry="18"/>
<text text-anchor="middle" x="125" y="-86.3" font-family="Times,serif" font-size="14.00">Package</text>
</g>
<!-- Game -->
<g id="node3" class="node"><title>Game</title>
<ellipse fill="none" stroke="black" cx="125" cy="-18" rx="32.2457" ry="18"/>
<text text-anchor="middle" x="125" y="-14.3" font-family="Times,serif" font-size="14.00">Game</text>
</g>
<!-- Package&#45;&gt;Game -->
<g id="edge1" class="edge"><title>Package&#45;&gt;Game</title>
<path fill="none" stroke="#02193d" d="M125,-61.6651C125,-56.6867 125,-51.4906 125,-46.5072"/>
<polygon fill="#02193d" stroke="#02193d" points="125,-61.6966 120.5,-71.6966 125,-66.6966 125,-71.6966 125,-71.6966 125,-71.6966 125,-66.6966 129.5,-71.6967 125,-61.6966 125,-61.6966"/>
<polygon fill="#02193d" stroke="#02193d" points="125,-46.1043 129.5,-36.1043 125,-41.1043 125,-36.1043 125,-36.1043 125,-36.1043 125,-41.1043 120.5,-36.1044 125,-46.1043 125,-46.1043"/>
</g>
<!-- Sale -->
<g id="node8" class="node"><title>Sale</title>
<ellipse fill="none" stroke="black" cx="233" cy="-18" rx="27" ry="18"/>
<text text-anchor="middle" x="233" y="-14.3" font-family="Times,serif" font-size="14.00">Sale</text>
</g>
<!-- Package&#45;&gt;Sale -->
<g id="edge2" class="edge"><title>Package&#45;&gt;Sale</title>
<path fill="none" stroke="#007571" d="M153.625,-70.4466C169.606,-60.0887 189.424,-47.2437 205.26,-36.9798"/>
<ellipse fill="none" stroke="#007571" cx="150.212" cy="-72.6589" rx="4.00002" ry="4.00002"/>
<polygon fill="#007571" stroke="#007571" points="205.673,-36.7122 216.512,-35.0494 209.868,-33.9927 214.064,-31.2732 214.064,-31.2732 214.064,-31.2732 209.868,-33.9927 211.617,-27.497 205.673,-36.7122 205.673,-36.7122"/>
</g>
<!-- Provider -->
<g id="node4" class="node"><title>Provider</title>
<ellipse fill="none" stroke="black" cx="272" cy="-183" rx="40.4202" ry="18"/>
<text text-anchor="middle" x="272" y="-179.3" font-family="Times,serif" font-size="14.00">Provider</text>
</g>
<!-- SdPackage -->
<g id="node6" class="node"><title>SdPackage</title>
<ellipse fill="none" stroke="black" cx="233" cy="-90" rx="49.0941" ry="18"/>
<text text-anchor="middle" x="233" y="-86.3" font-family="Times,serif" font-size="14.00">SdPackage</text>
</g>
<!-- Provider&#45;&gt;SdPackage -->
<g id="edge3" class="edge"><title>Provider&#45;&gt;SdPackage</title>
<path fill="none" stroke="#9607c7" d="M261.354,-157.159C256.082,-144.858 249.714,-129.999 244.35,-117.482"/>
<ellipse fill="none" stroke="#9607c7" cx="263.089" cy="-161.207" rx="4.00001" ry="4.00001"/>
<polygon fill="#9607c7" stroke="#9607c7" points="244.242,-117.231 244.439,-106.267 242.272,-112.635 240.303,-108.04 240.303,-108.04 240.303,-108.04 242.272,-112.635 236.167,-109.812 244.242,-117.231 244.242,-117.231"/>
</g>
<!-- Provider&#45;&gt;Sale -->
<g id="edge4" class="edge"><title>Provider&#45;&gt;Sale</title>
<path fill="none" stroke="#c7fc17" d="M283.916,-157.662C293.404,-134.702 303.238,-99.7603 291,-72 284.713,-57.7381 272.483,-45.6487 260.868,-36.6338"/>
<ellipse fill="none" stroke="#c7fc17" cx="282.208" cy="-161.585" rx="4.00002" ry="4.00002"/>
<polygon fill="#c7fc17" stroke="#c7fc17" points="260.698,-36.5103 255.261,-26.9874 256.656,-33.568 252.613,-30.6258 252.613,-30.6258 252.613,-30.6258 256.656,-33.568 249.965,-34.2642 260.698,-36.5103 260.698,-36.5103"/>
</g>
<!-- Ability -->
<g id="node5" class="node"><title>Ability</title>
<polygon fill="none" stroke="black" points="385.25,-201 330.75,-201 330.75,-165 385.25,-165 385.25,-201"/>
<text text-anchor="middle" x="358" y="-179.3" font-family="Times,serif" font-size="14.00">Ability</text>
</g>
<!-- SdPackage&#45;&gt;Sale -->
<g id="edge5" class="edge"><title>SdPackage&#45;&gt;Sale</title>
<path fill="none" stroke="#12b292" d="M233,-63.6398C233,-58.0629 233,-52.1319 233,-46.4761"/>
<ellipse fill="none" stroke="#12b292" cx="233" cy="-67.6966" rx="4" ry="4"/>
<polygon fill="#12b292" stroke="#12b292" points="233,-46.1043 237.5,-36.1043 233,-41.1043 233,-36.1043 233,-36.1043 233,-36.1043 233,-41.1043 228.5,-36.1044 233,-46.1043 233,-46.1043"/>
</g>
<!-- User -->
<g id="node7" class="node"><title>User</title>
<ellipse fill="none" stroke="black" cx="431" cy="-183" rx="26.949" ry="18"/>
<text text-anchor="middle" x="431" y="-179.3" font-family="Times,serif" font-size="14.00">User</text>
</g>
</g>
</svg>
