<?xml version="1.0" encoding="UTF-8" standalone="no"?>
<!DOCTYPE svg PUBLIC "-//W3C//DTD SVG 1.1//EN"
 "http://www.w3.org/Graphics/SVG/1.1/DTD/svg11.dtd">
<!-- Generated by graphviz version 2.36.0 (20140111.2315)
 -->
<!-- Title: models_diagram Pages: 1 -->
<svg width="662pt" height="838pt"
 viewBox="0.00 0.00 662.00 838.00" xmlns="http://www.w3.org/2000/svg" xmlns:xlink="http://www.w3.org/1999/xlink">
<g id="graph0" class="graph" transform="scale(1 1) rotate(0) translate(4 834)">
<title>models_diagram</title>
<polygon fill="white" stroke="none" points="-4,4 -4,-834 658,-834 658,4 -4,4"/>
<!-- _diagram_info -->
<g id="node1" class="node"><title>_diagram_info</title>
<text text-anchor="start" x="7" y="-725.6" font-family="Times,serif" font-size="13.00">Models diagram</text>
<text text-anchor="start" x="7" y="-711.6" font-family="Times,serif" font-size="13.00">Date: Jul 30 2015 &#45; 13:11</text>
<text text-anchor="start" x="7" y="-697.6" font-family="Times,serif" font-size="13.00">Migration version: 20150728204649</text>
<text text-anchor="start" x="7" y="-683.6" font-family="Times,serif" font-size="13.00">Generated by RailRoady 1.3.0</text>
<text text-anchor="start" x="7" y="-669.6" font-family="Times,serif" font-size="13.00">http://railroady.prestonlee.com</text>
</g>
<!-- Package -->
<g id="node2" class="node"><title>Package</title>
<path fill="none" stroke="black" d="M37.5,-399C37.5,-399 144.5,-399 144.5,-399 150.5,-399 156.5,-405 156.5,-411 156.5,-411 156.5,-523 156.5,-523 156.5,-529 150.5,-535 144.5,-535 144.5,-535 37.5,-535 37.5,-535 31.5,-535 25.5,-529 25.5,-523 25.5,-523 25.5,-411 25.5,-411 25.5,-405 31.5,-399 37.5,-399"/>
<text text-anchor="middle" x="91" y="-519.8" font-family="Times,serif" font-size="14.00">Package</text>
<polyline fill="none" stroke="black" points="25.5,-512 156.5,-512 "/>
<text text-anchor="start" x="33.5" y="-496.8" font-family="Times,serif" font-size="14.00">id :integer</text>
<text text-anchor="start" x="33.5" y="-481.8" font-family="Times,serif" font-size="14.00">name :string</text>
<text text-anchor="start" x="33.5" y="-466.8" font-family="Times,serif" font-size="14.00">created_at :datetime</text>
<text text-anchor="start" x="33.5" y="-451.8" font-family="Times,serif" font-size="14.00">updated_at :datetime</text>
<text text-anchor="start" x="33.5" y="-436.8" font-family="Times,serif" font-size="14.00">description :string</text>
<text text-anchor="start" x="33.5" y="-421.8" font-family="Times,serif" font-size="14.00">price :integer</text>
<text text-anchor="start" x="33.5" y="-406.8" font-family="Times,serif" font-size="14.00">logo :string</text>
</g>
<!-- Game -->
<g id="node3" class="node"><title>Game</title>
<path fill="none" stroke="black" d="M17.5,-0.5C17.5,-0.5 154.5,-0.5 154.5,-0.5 160.5,-0.5 166.5,-6.5 166.5,-12.5 166.5,-12.5 166.5,-349.5 166.5,-349.5 166.5,-355.5 160.5,-361.5 154.5,-361.5 154.5,-361.5 17.5,-361.5 17.5,-361.5 11.5,-361.5 5.5,-355.5 5.5,-349.5 5.5,-349.5 5.5,-12.5 5.5,-12.5 5.5,-6.5 11.5,-0.5 17.5,-0.5"/>
<text text-anchor="middle" x="86" y="-346.3" font-family="Times,serif" font-size="14.00">Game</text>
<polyline fill="none" stroke="black" points="5.5,-338.5 166.5,-338.5 "/>
<text text-anchor="start" x="13.5" y="-323.3" font-family="Times,serif" font-size="14.00">id :integer</text>
<text text-anchor="start" x="13.5" y="-308.3" font-family="Times,serif" font-size="14.00">name :string</text>
<text text-anchor="start" x="13.5" y="-293.3" font-family="Times,serif" font-size="14.00">description :string</text>
<text text-anchor="start" x="13.5" y="-278.3" font-family="Times,serif" font-size="14.00">gamekey :string</text>
<text text-anchor="start" x="13.5" y="-263.3" font-family="Times,serif" font-size="14.00">version :integer</text>
<text text-anchor="start" x="13.5" y="-248.3" font-family="Times,serif" font-size="14.00">short_description :string</text>
<text text-anchor="start" x="13.5" y="-233.3" font-family="Times,serif" font-size="14.00">version_description :string</text>
<text text-anchor="start" x="13.5" y="-218.3" font-family="Times,serif" font-size="14.00">company :string</text>
<text text-anchor="start" x="13.5" y="-203.3" font-family="Times,serif" font-size="14.00">apk_link :string</text>
<text text-anchor="start" x="13.5" y="-188.3" font-family="Times,serif" font-size="14.00">logo :string</text>
<text text-anchor="start" x="13.5" y="-173.3" font-family="Times,serif" font-size="14.00">image1 :string</text>
<text text-anchor="start" x="13.5" y="-158.3" font-family="Times,serif" font-size="14.00">image2 :string</text>
<text text-anchor="start" x="13.5" y="-143.3" font-family="Times,serif" font-size="14.00">image3 :string</text>
<text text-anchor="start" x="13.5" y="-128.3" font-family="Times,serif" font-size="14.00">image4 :string</text>
<text text-anchor="start" x="13.5" y="-113.3" font-family="Times,serif" font-size="14.00">image5 :string</text>
<text text-anchor="start" x="13.5" y="-98.3" font-family="Times,serif" font-size="14.00">image6 :string</text>
<text text-anchor="start" x="13.5" y="-83.3" font-family="Times,serif" font-size="14.00">image7 :string</text>
<text text-anchor="start" x="13.5" y="-68.3" font-family="Times,serif" font-size="14.00">image8 :string</text>
<text text-anchor="start" x="13.5" y="-53.3" font-family="Times,serif" font-size="14.00">image9 :string</text>
<text text-anchor="start" x="13.5" y="-38.3" font-family="Times,serif" font-size="14.00">image10 :string</text>
<text text-anchor="start" x="13.5" y="-23.3" font-family="Times,serif" font-size="14.00">created_at :datetime</text>
<text text-anchor="start" x="13.5" y="-8.3" font-family="Times,serif" font-size="14.00">updated_at :datetime</text>
</g>
<!-- Package&#45;&gt;Game -->
<g id="edge1" class="edge"><title>Package&#45;&gt;Game</title>
<path fill="none" stroke="#f212e9" d="M89.6346,-388.448C89.5403,-383.09 89.4432,-377.576 89.3442,-371.949"/>
<polygon fill="#f212e9" stroke="#f212e9" points="89.6389,-388.698 85.3158,-398.775 89.727,-393.697 89.8151,-398.696 89.8151,-398.696 89.8151,-398.696 89.727,-393.697 94.3144,-398.617 89.6389,-388.698 89.6389,-388.698"/>
<polygon fill="#f212e9" stroke="#f212e9" points="89.34,-371.704 93.6631,-361.627 89.2519,-366.705 89.1638,-361.706 89.1638,-361.706 89.1638,-361.706 89.2519,-366.705 84.6645,-361.785 89.34,-371.704 89.34,-371.704"/>
</g>
<!-- Sale -->
<g id="node8" class="node"><title>Sale</title>
<path fill="none" stroke="black" d="M197,-105.5C197,-105.5 315,-105.5 315,-105.5 321,-105.5 327,-111.5 327,-117.5 327,-117.5 327,-244.5 327,-244.5 327,-250.5 321,-256.5 315,-256.5 315,-256.5 197,-256.5 197,-256.5 191,-256.5 185,-250.5 185,-244.5 185,-244.5 185,-117.5 185,-117.5 185,-111.5 191,-105.5 197,-105.5"/>
<text text-anchor="middle" x="256" y="-241.3" font-family="Times,serif" font-size="14.00">Sale</text>
<polyline fill="none" stroke="black" points="185,-233.5 327,-233.5 "/>
<text text-anchor="start" x="193" y="-218.3" font-family="Times,serif" font-size="14.00">id :integer</text>
<text text-anchor="start" x="193" y="-203.3" font-family="Times,serif" font-size="14.00">provider_id :integer</text>
<text text-anchor="start" x="193" y="-188.3" font-family="Times,serif" font-size="14.00">package_id :integer</text>
<text text-anchor="start" x="193" y="-173.3" font-family="Times,serif" font-size="14.00">sd_package_id :integer</text>
<text text-anchor="start" x="193" y="-158.3" font-family="Times,serif" font-size="14.00">price :integer</text>
<text text-anchor="start" x="193" y="-143.3" font-family="Times,serif" font-size="14.00">ip :inet</text>
<text text-anchor="start" x="193" y="-128.3" font-family="Times,serif" font-size="14.00">created_at :datetime</text>
<text text-anchor="start" x="193" y="-113.3" font-family="Times,serif" font-size="14.00">updated_at :datetime</text>
</g>
<!-- Package&#45;&gt;Sale -->
<g id="edge2" class="edge"><title>Package&#45;&gt;Sale</title>
<path fill="none" stroke="#6023f1" d="M154.286,-392.294C161.664,-382.386 168.769,-372.137 175,-362 193.377,-332.103 210.012,-297.322 223.36,-266.348"/>
<ellipse fill="none" stroke="#6023f1" cx="151.817" cy="-395.56" rx="4.00002" ry="4.00002"/>
<polygon fill="#6023f1" stroke="#6023f1" points="223.479,-266.068 231.535,-258.629 225.437,-261.468 227.395,-256.867 227.395,-256.867 227.395,-256.867 225.437,-261.468 223.254,-255.105 223.479,-266.068 223.479,-266.068"/>
</g>
<!-- Provider -->
<g id="node4" class="node"><title>Provider</title>
<path fill="none" stroke="black" d="M243.5,-633C243.5,-633 350.5,-633 350.5,-633 356.5,-633 362.5,-639 362.5,-645 362.5,-645 362.5,-757 362.5,-757 362.5,-763 356.5,-769 350.5,-769 350.5,-769 243.5,-769 243.5,-769 237.5,-769 231.5,-763 231.5,-757 231.5,-757 231.5,-645 231.5,-645 231.5,-639 237.5,-633 243.5,-633"/>
<text text-anchor="middle" x="297" y="-753.8" font-family="Times,serif" font-size="14.00">Provider</text>
<polyline fill="none" stroke="black" points="231.5,-746 362.5,-746 "/>
<text text-anchor="start" x="239.5" y="-730.8" font-family="Times,serif" font-size="14.00">id :integer</text>
<text text-anchor="start" x="239.5" y="-715.8" font-family="Times,serif" font-size="14.00">email :string</text>
<text text-anchor="start" x="239.5" y="-700.8" font-family="Times,serif" font-size="14.00">created_at :datetime</text>
<text text-anchor="start" x="239.5" y="-685.8" font-family="Times,serif" font-size="14.00">updated_at :datetime</text>
<text text-anchor="start" x="239.5" y="-670.8" font-family="Times,serif" font-size="14.00">credit :integer</text>
<text text-anchor="start" x="239.5" y="-655.8" font-family="Times,serif" font-size="14.00">api_token :string</text>
<text text-anchor="start" x="239.5" y="-640.8" font-family="Times,serif" font-size="14.00">name :string</text>
</g>
<!-- SdPackage -->
<g id="node6" class="node"><title>SdPackage</title>
<path fill="none" stroke="black" d="M196.5,-406.5C196.5,-406.5 303.5,-406.5 303.5,-406.5 309.5,-406.5 315.5,-412.5 315.5,-418.5 315.5,-418.5 315.5,-515.5 315.5,-515.5 315.5,-521.5 309.5,-527.5 303.5,-527.5 303.5,-527.5 196.5,-527.5 196.5,-527.5 190.5,-527.5 184.5,-521.5 184.5,-515.5 184.5,-515.5 184.5,-418.5 184.5,-418.5 184.5,-412.5 190.5,-406.5 196.5,-406.5"/>
<text text-anchor="middle" x="250" y="-512.3" font-family="Times,serif" font-size="14.00">SdPackage</text>
<polyline fill="none" stroke="black" points="184.5,-504.5 315.5,-504.5 "/>
<text text-anchor="start" x="192.5" y="-489.3" font-family="Times,serif" font-size="14.00">id :integer</text>
<text text-anchor="start" x="192.5" y="-474.3" font-family="Times,serif" font-size="14.00">key :string</text>
<text text-anchor="start" x="192.5" y="-459.3" font-family="Times,serif" font-size="14.00">tablet :string</text>
<text text-anchor="start" x="192.5" y="-444.3" font-family="Times,serif" font-size="14.00">provider_id :integer</text>
<text text-anchor="start" x="192.5" y="-429.3" font-family="Times,serif" font-size="14.00">created_at :datetime</text>
<text text-anchor="start" x="192.5" y="-414.3" font-family="Times,serif" font-size="14.00">updated_at :datetime</text>
</g>
<!-- Provider&#45;&gt;SdPackage -->
<g id="edge3" class="edge"><title>Provider&#45;&gt;SdPackage</title>
<path fill="none" stroke="#6df3a4" d="M281.807,-625.004C276.131,-596.987 269.713,-565.308 264.136,-537.78"/>
<ellipse fill="none" stroke="#6df3a4" cx="282.611" cy="-628.976" rx="4.00001" ry="4.00001"/>
<polygon fill="#6df3a4" stroke="#6df3a4" points="264.108,-537.641 266.533,-526.946 263.116,-532.74 262.123,-527.84 262.123,-527.84 262.123,-527.84 263.116,-532.74 257.712,-528.734 264.108,-537.641 264.108,-537.641"/>
</g>
<!-- Provider&#45;&gt;Sale -->
<g id="edge4" class="edge"><title>Provider&#45;&gt;Sale</title>
<path fill="none" stroke="#e8ebca" d="M312.027,-624.781C316.876,-597.004 321.614,-565.186 324,-536 328.998,-474.871 333.317,-458.622 324,-398 317.173,-353.58 302.884,-305.762 289.159,-266.437"/>
<ellipse fill="none" stroke="#e8ebca" cx="311.288" cy="-628.944" rx="4.00001" ry="4.00001"/>
<polygon fill="#e8ebca" stroke="#e8ebca" points="289.024,-266.055 289.929,-255.127 287.355,-261.342 285.687,-256.629 285.687,-256.629 285.687,-256.629 287.355,-261.342 281.445,-258.131 289.024,-266.055 289.024,-266.055"/>
</g>
<!-- Ability -->
<g id="node5" class="node"><title>Ability</title>
<polygon fill="none" stroke="black" points="380.5,-678 380.5,-724 435.5,-724 435.5,-678 380.5,-678"/>
<text text-anchor="middle" x="408" y="-708.8" font-family="Times,serif" font-size="14.00">Ability</text>
<polyline fill="none" stroke="black" points="380.5,-701 435.5,-701 "/>
<text text-anchor="middle" x="408" y="-685.8" font-family="Times,serif" font-size="14.00"> </text>
</g>
<!-- SdPackage&#45;&gt;Sale -->
<g id="edge5" class="edge"><title>SdPackage&#45;&gt;Sale</title>
<path fill="none" stroke="#67dab4" d="M251.429,-398.378C252.261,-358.97 253.319,-308.912 254.207,-266.872"/>
<ellipse fill="none" stroke="#67dab4" cx="251.342" cy="-402.465" rx="4" ry="4"/>
<polygon fill="#67dab4" stroke="#67dab4" points="254.212,-266.644 258.922,-256.742 254.317,-261.646 254.423,-256.647 254.423,-256.647 254.423,-256.647 254.317,-261.646 249.924,-256.552 254.212,-266.644 254.212,-266.644"/>
</g>
<!-- User -->
<g id="node7" class="node"><title>User</title>
<path fill="none" stroke="black" d="M466,-573C466,-573 642,-573 642,-573 648,-573 654,-579 654,-585 654,-585 654,-817 654,-817 654,-823 648,-829 642,-829 642,-829 466,-829 466,-829 460,-829 454,-823 454,-817 454,-817 454,-585 454,-585 454,-579 460,-573 466,-573"/>
<text text-anchor="middle" x="554" y="-813.8" font-family="Times,serif" font-size="14.00">User</text>
<polyline fill="none" stroke="black" points="454,-806 654,-806 "/>
<text text-anchor="start" x="462" y="-790.8" font-family="Times,serif" font-size="14.00">id :integer</text>
<text text-anchor="start" x="462" y="-775.8" font-family="Times,serif" font-size="14.00">email :string</text>
<text text-anchor="start" x="462" y="-760.8" font-family="Times,serif" font-size="14.00">encrypted_password :string</text>
<text text-anchor="start" x="462" y="-745.8" font-family="Times,serif" font-size="14.00">reset_password_token :string</text>
<text text-anchor="start" x="462" y="-730.8" font-family="Times,serif" font-size="14.00">reset_password_sent_at :datetime</text>
<text text-anchor="start" x="462" y="-715.8" font-family="Times,serif" font-size="14.00">remember_created_at :datetime</text>
<text text-anchor="start" x="462" y="-700.8" font-family="Times,serif" font-size="14.00">sign_in_count :integer</text>
<text text-anchor="start" x="462" y="-685.8" font-family="Times,serif" font-size="14.00">current_sign_in_at :datetime</text>
<text text-anchor="start" x="462" y="-670.8" font-family="Times,serif" font-size="14.00">last_sign_in_at :datetime</text>
<text text-anchor="start" x="462" y="-655.8" font-family="Times,serif" font-size="14.00">current_sign_in_ip :inet</text>
<text text-anchor="start" x="462" y="-640.8" font-family="Times,serif" font-size="14.00">last_sign_in_ip :inet</text>
<text text-anchor="start" x="462" y="-625.8" font-family="Times,serif" font-size="14.00">created_at :datetime</text>
<text text-anchor="start" x="462" y="-610.8" font-family="Times,serif" font-size="14.00">updated_at :datetime</text>
<text text-anchor="start" x="462" y="-595.8" font-family="Times,serif" font-size="14.00">roles_mask :integer</text>
<text text-anchor="start" x="462" y="-580.8" font-family="Times,serif" font-size="14.00">name :string</text>
</g>
</g>
</svg>
